# xmcd
#
# Track frame offsets:
# 150
# 35395
# 58713
# 89925
# 123925
# 154490
# 183235
# 213706
# 244124
# 286764
# 306683
# 308932
#
# Disc length: 4572 seconds
#
#
# Revision: 0
# Processed by: cddbd v1.5.2PL0 Copyright (c) Steve Scherf et al.
# Submitted via: FreeRIP 2.93 
#
DISCID=b711da0c
DTITLE=Burr and Klaiber - Live in Concert
DYEAR=2009
DGENRE=Blues
TTITLE0=Isny
TTITLE1=Gipsy Fire
TTITLE2=Baisn' dais day Blues
TTITLE3=Einfach gut geträumt
TTITLE4=Maria
TTITLE5=Blues meets passion
TTITLE6=Kings' a little village Blues
TTITLE7=Liebestanz
TTITLE8=Hey Joe (A tribute to Jimi Hendrix)
TTITLE9=Guten Abend - Gut Nacht
TTITLE10=Silence
TTITLE11=Im Frühtau zu Berge (Bonus Track)
EXTD=Burr and Klaiber\n2009
EXTT0=
EXTT1=
EXTT2=
EXTT3=
EXTT4=
EXTT5=
EXTT6=
EXTT7=
EXTT8=
EXTT9=
EXTT10=
EXTT11=
PLAYORDER=
